HIERARCHY
ROOT Hips
{
	OFFSET -3.958830 18.904000 13.208200
	CHANNELS 6 Xposition Yposition Zposition Zrotation Yrotation Xrotation 
	JOINT LHipJoint
	{
		OFFSET 0.000000 0.000000 0.000000
		CHANNELS 3 Zrotation Yrotation Xrotation
		JOINT LeftUpLeg
		{
			OFFSET 1.800000 -1.400000 0.085000
			CHANNELS 3 Zrotation Yrotation Xrotation
			JOINT LeftLeg
			{
				OFFSET 2.215000 -6.000000 0.000000
				CHANNELS 3 Zrotation Yrotation Xrotation
				JOINT LeftFoot
				{
					OFFSET 2.500000 -6.900000 0.000000
					CHANNELS 3 Zrotation Yrotation Xrotation
					JOINT LeftToeBase
					{
						OFFSET 0.200000 -0.500000 1.950000
						CHANNELS 3 Zrotation Yrotation Xrotation
						End Site
						{
							OFFSET 0.000000 0.000000 0.000000
						}
					}
				}
			}
		}
	}
	JOINT RHipJoint
	{
		OFFSET 0.000000 0.000000 0.000000
		CHANNELS 3 Zrotation Yrotation Xrotation
		JOINT RightUpLeg
		{
			OFFSET -1.800000 -1.400000 0.085000
			CHANNELS 3 Zrotation Yrotation Xrotation
			JOINT RightLeg
			{
				OFFSET -2.215000 -6.000000 0.000000
				CHANNELS 3 Zrotation Yrotation Xrotation
				JOINT RightFoot
				{
					OFFSET -2.500000 -6.900000 0.000000
					CHANNELS 3 Zrotation Yrotation Xrotation
					JOINT RightToeBase
					{
						OFFSET -0.200000 -0.500000 1.950000
						CHANNELS 3 Zrotation Yrotation Xrotation
						End Site
						{
							OFFSET 0.000000 0.000000 0.000000
						}
					}
				}
			}
		}
	}
	JOINT LowerBack
	{
		OFFSET 0.000000 0.000000 0.000000
		CHANNELS 3 Zrotation Yrotation Xrotation
		JOINT Spine
		{
			OFFSET -0.087000 1.940000 -0.288900
			CHANNELS 3 Zrotation Yrotation Xrotation
			JOINT Spine1
			{
				OFFSET 0.000000 1.950000 0.060000
				CHANNELS 3 Zrotation Yrotation Xrotation
				JOINT Neck
				{
					OFFSET 0.000000 0.000000 0.000000
					CHANNELS 3 Zrotation Yrotation Xrotation
					JOINT Neck1
					{
						OFFSET 0.000000 1.600000 0.340000
						CHANNELS 3 Zrotation Yrotation Xrotation
						JOINT Head
						{
							OFFSET 0.000000 1.667000 -0.240000
							CHANNELS 3 Zrotation Yrotation Xrotation
							End Site
							{
								OFFSET 0.000000 0.000000 0.000000
							}
						}
					}
				}
				JOINT LeftShoulder
				{
					OFFSET 0.000000 0.000000 0.000000
					CHANNELS 3 Zrotation Yrotation Xrotation
					JOINT LeftArm
					{
						OFFSET 2.700000 1.550000 -0.730000
						CHANNELS 3 Zrotation Yrotation Xrotation
						JOINT LeftForeArm
						{
							OFFSET 5.450000 0.000000 0.000000
							CHANNELS 3 Zrotation Yrotation Xrotation
							JOINT LeftHand
							{
								OFFSET 3.450000 0.000000 0.000000
								CHANNELS 3 Zrotation Yrotation Xrotation
								JOINT LeftHandIndex1
								{
									OFFSET 0.750000 0.000000 0.000000
									CHANNELS 3 Zrotation Yrotation Xrotation
									End Site
									{
										OFFSET 0.000000 0.000000 0.000000
									}
								}
							}
						}
					}
				}
				JOINT RightShoulder
				{
					OFFSET 0.000000 0.000000 0.000000
					CHANNELS 3 Zrotation Yrotation Xrotation
					JOINT RightArm
					{
						OFFSET -2.700000 1.550000 -0.730000
						CHANNELS 3 Zrotation Yrotation Xrotation
						JOINT RightForeArm
						{
							OFFSET -5.450000 0.000000 0.000000
							CHANNELS 3 Zrotation Yrotation Xrotation
							JOINT RightHand
							{
								OFFSET -3.450000 0.000000 0.000000
								CHANNELS 3 Zrotation Yrotation Xrotation
								JOINT RightHandIndex1
								{
									OFFSET -0.750000 0.000000 0.000000
									CHANNELS 3 Zrotation Yrotation Xrotation
									End Site
									{
										OFFSET 0.000000 0.000000 0.000000
									}
								}
							}
						}
					}
				}
			}
		}
	}
}
MOTION
Frames: 11
Frame Time: 0.016667
-0.740410 16.986060 -0.423540 -6.357603 -0.332612 4.809968 -14.946807 12.347784 4.045997 32.494803 -0.573020 -9.368848 -3.142350 5.035644 -1.919654 0.172667 5.796312 2.705281 0.254300 0.031660 -0.017910 18.649857 -9.644684 2.878590 2.470044 -1.355269 -2.386199 11.495750 -4.795498 2.948215 -0.522488 -3.841280 3.283713 0.020780 0.346640 0.140740 -4.465455 -2.440879 -8.250935 26.553727 -0.300259 1.506859 -13.388993 1.577501 -6.350158 3.008331 -7.174378 -14.111726 -18.511148 7.602841 43.368997 3.865450 -1.138500 -0.562570 -12.887934 -5.896863 3.454262 1.384434 3.987159 0.365270 9.121762 -0.057270 -0.388584 -3.979282 2.645761 0.425870 0.123610 -0.076090 0.264580 6.348506 13.085642 10.848760 -1.504276 -1.505953 -0.314351 -3.790458 -2.569889 0.025015 2.624464 -1.125961 -0.155230 0.224160 -0.010360 -0.062380 
-0.740600 16.987870 -0.427520 -6.389266 -0.496668 4.991945 -14.946785 12.356296 4.038488 32.398440 -0.578969 -9.445744 -3.019534 5.001735 -1.969641 0.173226 5.767662 2.719079 0.244750 0.026850 -0.025340 18.647671 -9.631328 2.901118 2.525131 -1.342637 -2.412121 11.694804 -4.745702 2.577512 -0.520858 -3.834370 3.288990 0.019500 0.348880 0.127760 -4.460851 -2.463703 -8.263945 26.450164 -0.234667 1.377125 -13.254540 1.643962 -6.442929 3.002075 -7.192643 -14.270396 -18.609207 7.690170 43.593913 3.944660 -1.141050 -0.281030 -12.873459 -6.060255 3.596546 1.165114 4.316664 0.343004 9.363239 -0.222954 -0.362543 -3.970874 2.636999 0.425390 0.121080 -0.078220 0.265520 6.377881 13.344671 10.933871 -1.570655 -1.287526 -0.309549 -3.498872 -3.400944 0.028110 2.647953 -1.113667 -0.163450 0.232150 -0.011080 -0.060530 
-0.739560 16.988160 -0.431390 -6.323768 -0.612896 5.156683 -14.951699 12.316113 4.075464 32.562918 -0.549888 -9.558008 -3.380669 5.053283 -2.041580 0.188236 5.810636 2.715166 0.238970 0.022740 -0.035230 18.648378 -9.611963 2.904462 2.398965 -1.325329 -2.417129 11.818074 -4.689692 2.189302 -0.517470 -3.841136 3.300774 0.017470 0.368200 0.122460 -4.456388 -2.441119 -8.290959 26.232863 -0.190139 1.299847 -13.159024 1.674699 -6.478558 2.961514 -7.170740 -14.329276 -18.448269 7.645972 43.442448 4.032690 -1.206250 0.105550 -12.816206 -6.154471 3.685352 0.923222 4.481900 0.327146 9.655405 -0.355773 -0.341021 -3.975557 2.631399 0.416100 0.131860 -0.088200 0.276900 6.404393 13.493158 10.964217 -1.597698 -1.044064 -0.287028 -3.245599 -4.083794 0.017141 2.660618 -1.112340 -0.169060 0.243540 -0.014240 -0.053040 
-0.735440 16.988050 -0.435900 -6.318106 -0.685605 5.269753 -14.954444 12.298474 4.085020 32.670658 -0.545020 -9.678835 -3.278066 5.037607 -2.103211 0.191707 5.821321 2.724470 0.233560 0.011650 -0.041870 18.647966 -9.605001 2.910374 2.282316 -1.318046 -2.387024 11.765614 -4.618014 1.804951 -0.511422 -3.845009 3.316445 0.013790 0.388920 0.119330 -4.451985 -2.425924 -8.303665 26.121979 -0.187724 1.249613 -13.087423 1.680507 -6.363560 2.950284 -7.137895 -14.424405 -18.232989 7.591707 43.163163 4.147550 -1.270100 0.484560 -12.698883 -6.298415 3.829404 0.550293 4.737853 0.312902 9.962998 -0.581806 -0.327804 -3.981360 2.625524 0.411390 0.144440 -0.100540 0.287880 6.319715 13.667414 11.025124 -1.576612 -0.851009 -0.267549 -2.967795 -4.564883 0.004347 2.665670 -1.109366 -0.178360 0.254580 -0.015950 -0.050200 
-0.732800 16.988560 -0.440290 -6.331460 -0.734405 5.407123 -14.960315 12.282219 4.115891 32.815771 -0.516528 -9.884105 -3.410119 5.061575 -2.119882 0.204064 5.836961 2.718518 0.224950 0.005920 -0.047550 18.644322 -9.587270 2.916333 2.232308 -1.303790 -2.413503 11.847097 -4.575138 1.553367 -0.507746 -3.843748 3.316619 0.009810 0.393250 0.118620 -4.440201 -2.435579 -8.337115 26.018086 -0.162243 1.262446 -13.012827 1.725876 -6.564670 2.975017 -7.035522 -14.460886 -17.942515 7.490624 43.187995 4.029140 -1.247550 0.831180 -12.722680 -6.350635 3.847650 0.549898 4.919308 0.296657 9.951041 -0.991027 -0.324783 -3.981510 2.628465 0.400600 0.148910 -0.103830 0.288190 6.283675 13.736324 11.049668 -1.518854 -0.715501 -0.250154 -2.817602 -4.961186 -0.000515 2.680554 -1.110381 -0.177180 0.252650 -0.015550 -0.045610 
-0.731680 16.990160 -0.446540 -6.243994 -0.844280 5.549214 -14.961219 12.298952 4.123549 32.773117 -0.516467 -10.078709 -3.184832 5.009574 -2.161606 0.181416 5.818817 2.723108 0.221260 -0.006830 -0.042790 18.635856 -9.595665 2.923268 2.070322 -1.237443 -2.537500 11.715415 -4.521486 1.402302 -0.499380 -3.826185 3.320491 0.008540 0.395070 0.118470 -4.426141 -2.445471 -8.363728 25.755299 -0.120606 1.395034 -12.923098 1.793010 -6.905087 2.974261 -6.946019 -14.436332 -17.670894 7.425877 43.227640 3.922640 -1.175080 0.743030 -12.632158 -6.256569 3.788462 0.562474 4.974324 0.313918 9.756214 -1.380594 -0.351978 -3.985405 2.617608 0.411220 0.151070 -0.109010 0.280780 6.178426 13.673528 11.017963 -1.276759 -0.448054 -0.251658 -2.832310 -5.273974 0.015929 2.680214 -1.106315 -0.188290 0.255160 -0.007590 -0.055820 
-0.731720 16.993440 -0.450660 -6.095955 -0.952668 5.696828 -14.962133 12.336351 4.121303 32.576651 -0.533912 -10.248171 -2.934306 4.939037 -2.211769 0.144369 5.785850 2.728230 0.213170 -0.022890 -0.040790 18.622742 -9.603733 2.938431 1.893043 -1.178918 -2.640960 11.634006 -4.468994 1.177484 -0.491069 -3.806877 3.324935 0.008350 0.394190 0.115360 -4.404634 -2.483702 -8.393611 25.388643 -0.080154 1.523330 -12.751322 1.833578 -7.448127 2.976203 -6.885040 -14.381829 -17.535838 7.464796 43.543774 3.764740 -1.036330 0.445280 -12.544090 -6.060712 3.678985 0.522800 4.975628 0.343784 9.550487 -1.735650 -0.382030 -3.992758 2.595257 0.429310 0.151460 -0.112790 0.267220 6.068679 13.545098 10.925397 -1.111345 -0.068678 -0.255104 -2.707734 -5.576489 0.029091 2.673140 -1.090595 -0.204690 0.263150 0.008900 -0.070910 
-0.727180 16.995660 -0.454890 -6.089851 -1.024727 5.767374 -14.960289 12.340281 4.120611 32.477538 -0.565108 -10.287389 -2.732883 4.876670 -2.369169 0.124853 5.773920 2.730349 0.211380 -0.032230 -0.033740 18.620952 -9.601286 2.949505 1.797738 -1.169561 -2.612699 11.635837 -4.428594 0.898454 -0.492083 -3.806473 3.321388 0.008180 0.393850 0.117490 -4.403655 -2.491946 -8.404643 25.421697 -0.104508 1.550760 -12.873152 1.827962 -7.644561 3.003931 -6.802120 -14.320396 -17.307522 7.481780 43.720189 3.670920 -0.908200 0.215960 -12.511863 -5.972028 3.613373 0.552761 4.948762 0.366882 9.401103 -1.974954 -0.406655 -3.999094 2.583850 0.440120 0.152250 -0.113770 0.258710 5.931824 13.451724 10.849506 -0.828782 0.413503 -0.240597 -2.736516 -5.896889 0.053776 2.672632 -1.083422 -0.212780 0.266940 0.018110 -0.080790 
-0.722080 16.997340 -0.461310 -6.111934 -1.030416 5.771067 -14.956253 12.332697 4.112817 32.432281 -0.573907 -10.366463 -2.592519 4.840104 -2.417320 0.112543 5.763481 2.731228 0.210860 -0.037170 -0.030470 18.624100 -9.599019 2.962059 1.661566 -1.162053 -2.549798 11.852675 -4.417327 0.628145 -0.497748 -3.827359 3.307993 0.008980 0.394360 0.122750 -4.413201 -2.480036 -8.409125 25.556879 -0.176260 1.601209 -13.136083 1.802274 -7.672099 3.018562 -6.695554 -14.259663 -17.001060 7.439968 43.744649 3.678620 -0.859860 0.103110 -12.603268 -6.014084 3.571582 0.836404 4.854703 0.392701 9.230133 -1.914151 -0.425577 -4.007596 2.581210 0.443870 0.154090 -0.114680 0.253410 5.937466 13.418955 10.800361 -0.613274 0.766978 -0.220703 -2.841136 -6.157980 0.077918 2.674265 -1.085588 -0.215290 0.265120 0.024020 -0.085320 
-0.721400 16.996690 -0.468400 -5.942338 -0.994006 5.712046 -14.955676 12.350422 4.094334 32.245353 -0.583950 -10.439002 -2.487311 4.799757 -2.389177 0.101223 5.730312 2.739953 0.215490 -0.040100 -0.016560 18.617664 -9.609924 2.976229 1.432464 -1.143479 -2.492427 11.921959 -4.394986 0.401706 -0.503418 -3.836420 3.299467 0.007680 0.385050 0.127730 -4.403468 -2.483273 -8.420790 25.156302 -0.204905 1.702371 -12.977049 1.764335 -7.541086 3.040028 -6.586587 -14.312602 -16.784511 7.328066 43.823830 3.536180 -0.802810 -0.031780 -12.646193 -6.199380 3.633921 0.912808 4.783872 0.406342 8.986066 -1.752432 -0.440012 -4.009726 2.580268 0.450530 0.150220 -0.109730 0.247960 5.949532 13.509345 10.831870 -0.516444 0.846523 -0.227335 -3.012254 -6.334750 0.109766 2.679591 -1.086900 -0.214330 0.259110 0.022830 -0.092660 
-0.721360 16.995730 -0.478490 -5.799307 -0.899343 5.593305 -14.956758 12.363319 4.074193 32.090683 -0.578004 -10.558163 -2.386544 4.767894 -2.322474 0.093035 5.698591 2.752200 0.215430 -0.045370 -0.014130 18.611557 -9.622431 2.986330 1.216229 -1.126513 -2.426605 12.041619 -4.399538 0.283354 -0.505785 -3.856440 3.293575 0.005080 0.385900 0.130510 -4.392204 -2.478801 -8.428212 24.699847 -0.267628 1.857208 -12.696017 1.693243 -7.260399 3.027920 -6.514034 -14.368050 -16.621036 7.210027 43.665198 3.497270 -0.830280 0.059650 -12.903495 -6.507632 3.741104 1.052919 4.893021 0.409215 9.001065 -1.739523 -0.444983 -4.008967 2.586675 0.451090 0.151970 -0.111750 0.248490 6.264233 13.688251 10.873127 -0.785719 0.664516 -0.267860 -3.246835 -6.320438 0.124342 2.678283 -1.093477 -0.215070 0.255790 0.022430 -0.094710 
